<?xml version="1.0" encoding="utf-8"?>
<!-- Generator: Adobe Illustrator 22.1.0, SVG Export Plug-In . SVG Version: 6.00 Build 0)  -->
<svg version="1.1" id="function" xmlns="http://www.w3.org/2000/svg" xmlns:xlink="http://www.w3.org/1999/xlink" x="0px" y="0px"
	 viewBox="0 0 120 120" style="enable-background:new 0 0 120 120;" xml:space="preserve">
<style type="text/css">
	.st0{fill:#19191F;}
	.st1{enable-background:new    ;}
	.st2{fill:#09C295;}
	.st3{fill:#6189BB;}
	.st4{fill:#B376B3;}
	.st5{fill:#FF435B;}
	.st6{fill:#FF6D5B;}
	.st7{fill:#CE9C3D;}
	.st8{fill:#AFBAD4;}
</style>
<path id="BG" class="st0" d="M8.3,0h103.3c4.6,0,8.3,3.7,8.3,8.3v103.3c0,4.6-3.7,8.3-8.3,8.3H8.3c-4.6,0-8.3-3.7-8.3-8.3V8.3
	C0,3.7,3.7,0,8.3,0z"/>
<g class="st1">
	<path class="st2" d="M22.4,12.5l-0.5,1.2c-0.7-0.3-1.5-0.4-2.3-0.4c-1.5,0-2.3,0.5-2.3,1.7v2h3.6l-0.2,1.2h-3.5v8h-1.7v-8H13V17
		h2.6v-2c0-1.8,1.7-3,3.9-3C20.6,11.9,21.5,12.1,22.4,12.5z"/>
	<path class="st2" d="M28.9,25.1c1.2,0,2.3-0.7,2.9-1.6v-7.3h1.7v10H32l-0.1-1.3c-0.8,1-2.2,1.6-3.4,1.6c-2.1,0-3.1-1.1-3.1-2.9
		v-7.3h1.7v7.1C27.1,24.5,27.6,25.1,28.9,25.1z"/>
	<path class="st2" d="M39,16.2l0.1,1.4c0.9-1,2.3-1.6,3.5-1.6c2.1,0,3,1.1,3,3v7.2H44v-6.1c0-2-0.2-2.9-1.8-2.9
		c-1.3,0-2.4,0.9-2.9,1.7v7.3h-1.7v-10H39z"/>
	<path class="st2" d="M57.4,24l0.8,1.1c-0.9,0.7-2.4,1.2-3.6,1.2c-3.2,0-5-2-5-5.2c0-3,1.8-5.2,5-5.2c1.4,0,2.6,0.4,3.6,1.2
		l-0.9,1.1c-0.9-0.6-1.8-0.9-2.8-0.9c-1.9,0-3.2,1.3-3.2,3.9c0,2.7,1.3,3.8,3.2,3.8C55.7,25,56.6,24.6,57.4,24z"/>
	<path class="st2" d="M67.6,26.3c-2.3,0-3.6-1.2-3.6-3v-6h-2.5v-1.2H64v-2.3l1.7-0.2v2.5h3.7l-0.2,1.2h-3.5v5.9
		c0,1.1,0.6,1.7,2.1,1.7c0.8,0,1.5-0.2,2.1-0.5l0.7,1.1C69.7,26.1,68.6,26.3,67.6,26.3z"/>
	<path class="st2" d="M82.6,24.9v1.2h-8v-1.2h3.3v-7.5h-3.2v-1.2h4.9v8.7C79.6,24.9,82.6,24.9,82.6,24.9z M79.5,12.6
		c0,0.6-0.5,1.1-1.2,1.1s-1.2-0.5-1.2-1.1s0.5-1.1,1.2-1.1S79.5,12,79.5,12.6z"/>
	<path class="st2" d="M95,21.1c0,3-1.6,5.2-4.6,5.2s-4.6-2-4.6-5.2c0-3.1,1.6-5.2,4.6-5.2C93.5,15.9,95,18,95,21.1z M87.6,21.1
		c0,2.7,0.9,3.9,2.8,3.9s2.8-1.2,2.8-3.9s-0.9-3.9-2.8-3.9C88.6,17.2,87.6,18.5,87.6,21.1z"/>
	<path class="st2" d="M100,16.2l0.1,1.4c0.9-1,2.3-1.6,3.5-1.6c2.1,0,3,1.1,3,3v7.2H105v-6.1c0-2-0.2-2.9-1.8-2.9
		c-1.3,0-2.4,0.9-2.9,1.7v7.3h-1.7v-10H100z"/>
</g>
<g class="st1">
	<path class="st3" d="M22.4,30.2l-0.5,1.2c-0.7-0.3-1.5-0.4-2.3-0.4c-1.5,0-2.3,0.5-2.3,1.7v2h3.6l-0.2,1.2h-3.5v8h-1.7v-8H13v-1.2
		h2.6v-2c0-1.8,1.7-3,3.9-3C20.6,29.7,21.5,29.9,22.4,30.2z"/>
	<path class="st3" d="M28.9,42.8c1.2,0,2.3-0.7,2.9-1.6v-7.3h1.7v10H32l-0.1-1.3c-0.8,1-2.2,1.6-3.4,1.6c-2.1,0-3.1-1.1-3.1-2.9V34
		h1.7v7C27.1,42.3,27.6,42.8,28.9,42.8z"/>
	<path class="st3" d="M39,33.9l0.1,1.4c0.9-1,2.3-1.6,3.5-1.6c2.1,0,3,1.1,3,3v7.2H44v-6.1c0-2-0.2-2.9-1.8-2.9
		c-1.3,0-2.4,0.9-2.9,1.7v7.3h-1.7v-10C37.6,33.9,39,33.9,39,33.9z"/>
	<path class="st3" d="M57.4,41.8l0.8,1.1c-0.9,0.7-2.4,1.2-3.6,1.2c-3.2,0-5-2-5-5.2c0-3,1.8-5.2,5-5.2c1.4,0,2.6,0.4,3.6,1.2
		L57.3,36c-0.9-0.6-1.8-0.9-2.8-0.9c-1.9,0-3.2,1.3-3.2,3.9c0,2.7,1.3,3.8,3.2,3.8C55.7,42.7,56.6,42.4,57.4,41.8z"/>
	<path class="st3" d="M67.6,44.1c-2.3,0-3.6-1.2-3.6-3v-6h-2.5v-1.2H64v-2.3l1.7-0.2v2.5h3.7l-0.2,1.2h-3.5V41
		c0,1.1,0.6,1.7,2.1,1.7c0.8,0,1.5-0.2,2.1-0.5l0.7,1.1C69.7,43.8,68.6,44.1,67.6,44.1z"/>
	<path class="st3" d="M82.6,42.6v1.2h-8v-1.2h3.3v-7.5h-3.2v-1.2h4.9v8.7H82.6z M79.5,30.3c0,0.6-0.5,1.1-1.2,1.1s-1.2-0.5-1.2-1.1
		s0.5-1.1,1.2-1.1C79,29.2,79.5,29.7,79.5,30.3z"/>
	<path class="st3" d="M95,38.9c0,3-1.6,5.2-4.6,5.2s-4.6-2-4.6-5.2c0-3.1,1.6-5.2,4.6-5.2C93.5,33.7,95,35.7,95,38.9z M87.6,38.9
		c0,2.7,0.9,3.9,2.8,3.9s2.8-1.2,2.8-3.9S92.3,35,90.4,35C88.6,35,87.6,36.2,87.6,38.9z"/>
	<path class="st3" d="M100,33.9l0.1,1.4c0.9-1,2.3-1.6,3.5-1.6c2.1,0,3,1.1,3,3v7.2H105v-6.1c0-2-0.2-2.9-1.8-2.9
		c-1.3,0-2.4,0.9-2.9,1.7v7.3h-1.7v-10C98.6,33.9,100,33.9,100,33.9z"/>
</g>
<g class="st1">
	<path class="st4" d="M22.4,46.4l-0.5,1.2c-0.7-0.3-1.5-0.4-2.3-0.4c-1.5,0-2.3,0.5-2.3,1.7v2h3.6L20.7,52h-3.5v8h-1.7v-8H13v-1.2
		h2.6v-2c0-1.8,1.7-3,3.9-3C20.6,45.8,21.5,46,22.4,46.4z"/>
	<path class="st4" d="M28.9,58.9c1.2,0,2.3-0.7,2.9-1.6V50h1.7v10H32l-0.1-1.3c-0.8,1-2.2,1.6-3.4,1.6c-2.1,0-3.1-1.1-3.1-2.9V50
		h1.7v7.1C27.1,58.4,27.6,58.9,28.9,58.9z"/>
	<path class="st4" d="M39,50l0.1,1.4c0.9-1,2.3-1.6,3.5-1.6c2.1,0,3,1.1,3,3V60H44v-6.1c0-2-0.2-2.9-1.8-2.9c-1.3,0-2.4,0.9-2.9,1.7
		V60h-1.7V50H39z"/>
	<path class="st4" d="M57.4,57.9l0.8,1.1c-0.9,0.7-2.4,1.2-3.6,1.2c-3.2,0-5-2-5-5.2c0-3,1.8-5.2,5-5.2c1.4,0,2.6,0.4,3.6,1.2
		l-0.9,1.1c-0.9-0.6-1.8-0.9-2.8-0.9c-1.9,0-3.2,1.3-3.2,3.9c0,2.7,1.3,3.8,3.2,3.8C55.7,58.9,56.6,58.5,57.4,57.9z"/>
	<path class="st4" d="M67.6,60.2c-2.3,0-3.6-1.2-3.6-3v-6h-2.5V50H64v-2.3l1.7-0.2V50h3.7l-0.2,1.2h-3.5v5.9c0,1.1,0.6,1.7,2.1,1.7
		c0.8,0,1.5-0.2,2.1-0.5l0.7,1.1C69.7,59.9,68.6,60.2,67.6,60.2z"/>
	<path class="st4" d="M82.6,58.7V60h-8v-1.2h3.3v-7.5h-3.2V50h4.9v8.7H82.6z M79.5,46.5c0,0.6-0.5,1.1-1.2,1.1s-1.2-0.5-1.2-1.1
		s0.5-1.1,1.2-1.1S79.5,45.8,79.5,46.5z"/>
	<path class="st4" d="M95,55c0,3-1.6,5.2-4.6,5.2s-4.6-2-4.6-5.2c0-3.1,1.6-5.2,4.6-5.2C93.5,49.8,95,51.8,95,55z M87.6,55
		c0,2.7,0.9,3.9,2.8,3.9s2.8-1.2,2.8-3.9s-0.9-3.9-2.8-3.9C88.6,51.1,87.6,52.3,87.6,55z"/>
	<path class="st4" d="M100,50l0.1,1.4c0.9-1,2.3-1.6,3.5-1.6c2.1,0,3,1.1,3,3V60H105v-6.1c0-2-0.2-2.9-1.8-2.9
		c-1.3,0-2.4,0.9-2.9,1.7V60h-1.7V50H100z"/>
</g>
<g class="st1">
	<path class="st5" d="M22.4,62.5l-0.5,1.2c-0.7-0.3-1.5-0.4-2.3-0.4c-1.5,0-2.3,0.5-2.3,1.7v2h3.6l-0.2,1.2h-3.5v8h-1.7v-8H13V67
		h2.6v-2c0-1.8,1.7-3,3.9-3C20.6,61.9,21.5,62.1,22.4,62.5z"/>
	<path class="st5" d="M28.9,75.1c1.2,0,2.3-0.7,2.9-1.6v-7.3h1.7v10H32l-0.1-1.3c-0.8,1-2.2,1.6-3.4,1.6c-2.1,0-3.1-1.1-3.1-2.9
		v-7.3h1.7v7.1C27.1,74.5,27.6,75.1,28.9,75.1z"/>
	<path class="st5" d="M39,66.2l0.1,1.4c0.9-1,2.3-1.6,3.5-1.6c2.1,0,3,1.1,3,3v7.2H44v-6.1c0-2-0.2-2.9-1.8-2.9
		c-1.3,0-2.4,0.9-2.9,1.7v7.3h-1.7v-10H39z"/>
	<path class="st5" d="M57.4,74l0.8,1.1c-0.9,0.7-2.4,1.2-3.6,1.2c-3.2,0-5-2-5-5.2c0-3,1.8-5.2,5-5.2c1.4,0,2.6,0.4,3.6,1.2
		l-0.9,1.1c-0.9-0.6-1.8-0.9-2.8-0.9c-1.9,0-3.2,1.3-3.2,3.9c0,2.7,1.3,3.8,3.2,3.8C55.7,75,56.6,74.6,57.4,74z"/>
	<path class="st5" d="M67.6,76.3c-2.3,0-3.6-1.2-3.6-3v-6h-2.5v-1.2H64v-2.3l1.7-0.2v2.5h3.7l-0.2,1.2h-3.5v5.9
		c0,1.1,0.6,1.7,2.1,1.7c0.8,0,1.5-0.2,2.1-0.5l0.7,1.1C69.7,76.1,68.6,76.3,67.6,76.3z"/>
	<path class="st5" d="M82.6,74.9v1.2h-8v-1.2h3.3v-7.5h-3.2v-1.2h4.9v8.7H82.6z M79.5,62.6c0,0.6-0.5,1.1-1.2,1.1s-1.2-0.5-1.2-1.1
		s0.5-1.1,1.2-1.1S79.5,62,79.5,62.6z"/>
	<path class="st5" d="M95,71.1c0,3-1.6,5.2-4.6,5.2s-4.6-2-4.6-5.2c0-3.1,1.6-5.2,4.6-5.2C93.5,65.9,95,68,95,71.1z M87.6,71.1
		c0,2.7,0.9,3.9,2.8,3.9s2.8-1.2,2.8-3.9c0-2.7-0.9-3.9-2.8-3.9C88.6,67.2,87.6,68.5,87.6,71.1z"/>
	<path class="st5" d="M100,66.2l0.1,1.4c0.9-1,2.3-1.6,3.5-1.6c2.1,0,3,1.1,3,3v7.2H105v-6.1c0-2-0.2-2.9-1.8-2.9
		c-1.3,0-2.4,0.9-2.9,1.7v7.3h-1.7v-10H100z"/>
</g>
<g class="st1">
	<path class="st6" d="M22.4,78.6l-0.5,1.2c-0.7-0.3-1.5-0.4-2.3-0.4c-1.5,0-2.3,0.5-2.3,1.7v2h3.6l-0.2,1.2h-3.5v8h-1.7v-8H13V83
		h2.6v-2c0-1.8,1.7-3,3.9-3C20.6,78.1,21.5,78.3,22.4,78.6z"/>
	<path class="st6" d="M28.9,91.2c1.2,0,2.3-0.7,2.9-1.6v-7.3h1.7v10H32L31.9,91c-0.8,1-2.2,1.6-3.4,1.6c-2.1,0-3.1-1.1-3.1-2.9v-7.3
		h1.7v7.1C27.1,90.7,27.6,91.2,28.9,91.2z"/>
	<path class="st6" d="M39,82.3l0.1,1.4c0.9-1,2.3-1.6,3.5-1.6c2.1,0,3,1.1,3,3v7.2H44v-6.1c0-2-0.2-2.9-1.8-2.9
		c-1.3,0-2.4,0.9-2.9,1.7v7.3h-1.7v-10H39z"/>
	<path class="st6" d="M57.4,90.2l0.8,1.1c-0.9,0.7-2.4,1.2-3.6,1.2c-3.2,0-5-2-5-5.2c0-3,1.8-5.2,5-5.2c1.4,0,2.6,0.4,3.6,1.2
		l-0.9,1.1c-0.9-0.6-1.8-0.9-2.8-0.9c-1.9,0-3.2,1.3-3.2,3.9c0,2.7,1.3,3.8,3.2,3.8C55.7,91.1,56.6,90.7,57.4,90.2z"/>
	<path class="st6" d="M67.6,92.5c-2.3,0-3.6-1.2-3.6-3v-6h-2.5v-1.2H64V80l1.7-0.2v2.5h3.7l-0.2,1.2h-3.5v5.9c0,1.1,0.6,1.7,2.1,1.7
		c0.8,0,1.5-0.2,2.1-0.5l0.7,1.1C69.7,92.2,68.6,92.5,67.6,92.5z"/>
	<path class="st6" d="M82.6,91v1.2h-8V91h3.3v-7.5h-3.2v-1.2h4.9V91H82.6z M79.5,78.7c0,0.6-0.5,1.1-1.2,1.1s-1.2-0.5-1.2-1.1
		s0.5-1.1,1.2-1.1S79.5,78.1,79.5,78.7z"/>
	<path class="st6" d="M95,87.2c0,3-1.6,5.2-4.6,5.2s-4.6-2-4.6-5.2c0-3.1,1.6-5.2,4.6-5.2C93.5,82.1,95,84.1,95,87.2z M87.6,87.3
		c0,2.7,0.9,3.9,2.8,3.9s2.8-1.2,2.8-3.9c0-2.7-0.9-3.9-2.8-3.9C88.6,83.3,87.6,84.6,87.6,87.3z"/>
	<path class="st6" d="M100,82.3l0.1,1.4c0.9-1,2.3-1.6,3.5-1.6c2.1,0,3,1.1,3,3v7.2H105v-6.1c0-2-0.2-2.9-1.8-2.9
		c-1.3,0-2.4,0.9-2.9,1.7v7.3h-1.7v-10H100z"/>
</g>
<g class="st1">
	<path class="st7" d="M22.4,94.7l-0.5,1.2c-0.7-0.3-1.5-0.4-2.3-0.4c-1.5,0-2.3,0.5-2.3,1.7v2h3.6l-0.2,1.2h-3.5v8h-1.7v-8H13v-1.2
		h2.6v-2c0-1.8,1.7-3,3.9-3C20.6,94.2,21.5,94.4,22.4,94.7z"/>
	<path class="st7" d="M28.9,107.3c1.2,0,2.3-0.7,2.9-1.6v-7.3h1.7v10H32l-0.1-1.3c-0.8,1-2.2,1.6-3.4,1.6c-2.1,0-3.1-1.1-3.1-2.9
		v-7.3h1.7v7.1C27.1,106.8,27.6,107.3,28.9,107.3z"/>
	<path class="st7" d="M39,98.4l0.1,1.4c0.9-1,2.3-1.6,3.5-1.6c2.1,0,3,1.1,3,3v7.2H44v-6.1c0-2-0.2-2.9-1.8-2.9
		c-1.3,0-2.4,0.9-2.9,1.7v7.3h-1.7v-10H39z"/>
	<path class="st7" d="M57.4,106.3l0.8,1.1c-0.9,0.7-2.4,1.2-3.6,1.2c-3.2,0-5-2-5-5.2c0-3,1.8-5.2,5-5.2c1.4,0,2.6,0.4,3.6,1.2
		l-0.9,1.1c-0.9-0.6-1.8-0.9-2.8-0.9c-1.9,0-3.2,1.3-3.2,3.9c0,2.7,1.3,3.8,3.2,3.8C55.7,107.2,56.6,106.9,57.4,106.3z"/>
	<path class="st7" d="M67.6,108.6c-2.3,0-3.6-1.2-3.6-3v-6h-2.5v-1.2H64v-2.3l1.7-0.2v2.5h3.7l-0.2,1.2h-3.5v5.9
		c0,1.1,0.6,1.7,2.1,1.7c0.8,0,1.5-0.2,2.1-0.5l0.7,1.1C69.7,108.3,68.6,108.6,67.6,108.6z"/>
	<path class="st7" d="M82.6,107.1v1.2h-8v-1.2h3.3v-7.5h-3.2v-1.2h4.9v8.7H82.6z M79.5,94.9c0,0.6-0.5,1.1-1.2,1.1s-1.2-0.5-1.2-1.1
		s0.5-1.1,1.2-1.1C79,93.7,79.5,94.2,79.5,94.9z"/>
	<path class="st7" d="M95,103.4c0,3-1.6,5.2-4.6,5.2s-4.6-2-4.6-5.2c0-3.1,1.6-5.2,4.6-5.2C93.5,98.2,95,100.2,95,103.4z
		 M87.6,103.4c0,2.7,0.9,3.9,2.8,3.9s2.8-1.2,2.8-3.9c0-2.7-0.9-3.9-2.8-3.9C88.6,99.5,87.6,100.7,87.6,103.4z"/>
	<path class="st7" d="M100,98.4l0.1,1.4c0.9-1,2.3-1.6,3.5-1.6c2.1,0,3,1.1,3,3v7.2H105v-6.1c0-2-0.2-2.9-1.8-2.9
		c-1.3,0-2.4,0.9-2.9,1.7v7.3h-1.7v-10H100z"/>
</g>
<rect x="42.7" y="31.7" class="st0" width="41.1" height="62"/>
<g class="st1">
	<g>
		<path class="st8" d="M38.5,99.3c-1.1,0-2-0.9-2-2V28c0-1.1,0.9-2,2-2h45.3c0.6,0,1.1,0.3,1.5,0.7s0.5,1,0.5,1.6L84,40
			c-0.1,1-1,1.7-2,1.7H56.9v12.7h22c1.1,0,2,0.9,2,2v11.4c0,1.1-0.9,2-2,2h-22v13.7h26.9c1.1,0,2,0.9,2,2v11.8c0,1.1-0.9,2-2,2H38.5
			z"/>
		<path class="st0" d="M83.7,28L83.7,28 M83.7,28L82,39.7H54.9v16.7h24v11.4h-24v17.7h28.9v11.8H38.5V28H83.7 M83.8,24L83.8,24H38.5
			c-2.2,0-4,1.8-4,4v69.3c0,2.2,1.8,4,4,4h45.3c2.2,0,4-1.8,4-4V85.5c0-2.2-1.8-4-4-4H58.9v-9.7h20c2.2,0,4-1.8,4-4V56.4
			c0-2.2-1.8-4-4-4h-20v-8.7H82c2,0,3.7-1.5,4-3.4l1.7-11.5c0-0.2,0.1-0.5,0.1-0.7C87.8,25.8,86,24,83.8,24L83.8,24z M83.7,32
			L83.7,32L83.7,32L83.7,32z"/>
	</g>
</g>
</svg>
